<?xml version="1.0" encoding="UTF-8" standalone="no"?>
<!-- Created with Inkscape (http://www.inkscape.org/) -->

<svg
   width="17.514915cm"
   height="7.6832557cm"
   viewBox="0 0 175.14915 76.832556"
   version="1.1"
   id="svg5"
   inkscape:version="1.1 (c68e22c387, 2021-05-23)"
   sodipodi:docname="Tenpo Logo.svg"
   xmlns:inkscape="http://www.inkscape.org/namespaces/inkscape"
   xmlns:sodipodi="http://sodipodi.sourceforge.net/DTD/sodipodi-0.dtd"
   xmlns="http://www.w3.org/2000/svg"
   xmlns:svg="http://www.w3.org/2000/svg">
  <sodipodi:namedview
     id="namedview7"
     pagecolor="#ffffff"
     bordercolor="#666666"
     borderopacity="1.0"
     inkscape:pageshadow="2"
     inkscape:pageopacity="0.0"
     inkscape:pagecheckerboard="0"
     inkscape:document-units="cm"
     showgrid="false"
     units="cm"
     inkscape:showpageshadow="false"
     showguides="true"
     inkscape:guide-bbox="true"
     inkscape:zoom="0.66559103"
     inkscape:cx="396.63996"
     inkscape:cy="81.882113"
     inkscape:window-width="1366"
     inkscape:window-height="705"
     inkscape:window-x="-8"
     inkscape:window-y="-8"
     inkscape:window-maximized="1"
     inkscape:current-layer="layer1"
     inkscape:snap-center="true"
     inkscape:snap-bbox="true"
     inkscape:snap-bbox-midpoints="false"
     inkscape:snap-bbox-edge-midpoints="true"
     inkscape:snap-page="true" />
  <defs
     id="defs2">
    <style
       id="style929">.a{fill:#00baa4;}</style>
  </defs>
  <g
     inkscape:label="Capa 1"
     inkscape:groupmode="layer"
     id="layer1"
     transform="translate(-42.849551,-38.902031)">
    <g
       id="g7738">
      <path
         id="rect7406"
         style="opacity:1;vector-effect:none;fill:#ffffff;fill-rule:evenodd;stroke-width:0.547182;paint-order:fill markers stroke;stop-color:#000000;stop-opacity:1"
         d="M 42.849552,38.902031 H 217.99871 V 115.73459 H 42.849552 Z" />
      <g
         id="g6953">
        <path
           id="Trazado_16007"
           data-name="Trazado 16007"
           d="m 152.43751,70.174568 a 6.428983,6.428983 0 0 1 3.41518,0.919673 6.6890043,6.6890043 0 0 1 2.42047,2.557458 7.5999513,7.5999513 0 0 1 0.89873,3.685671 7.4743035,7.4743035 0 0 1 -0.89524,3.664729 6.636651,6.636651 0 0 1 -2.42396,2.538262 6.5991311,6.5991311 0 0 1 -9.23337,-2.530409 7.6444516,7.6444516 0 0 1 -0.87256,-3.670837 7.7395601,7.7395601 0 0 1 0.88041,-3.691779 6.4411987,6.4411987 0 0 1 5.81296,-3.471023 m 6.47523,-3.978849 v 0 a 12.826554,12.826554 0 0 0 -6.47785,-1.686648 12.477532,12.477532 0 0 0 -11.01426,6.311188 12.913809,12.913809 0 0 0 -1.6849,6.519729 v 20.505035 a 2.9850096,2.9850096 0 0 0 0.89524,2.236362 3.0792455,3.0792455 0 0 0 5.28158,-2.236362 V 87.502632 a 11.436574,11.436574 0 0 0 7.38094,2.617664 11.402545,11.402545 0 0 0 6.07123,-1.672687 11.784724,11.784724 0 0 0 4.27552,-4.616687 13.760187,13.760187 0 0 0 1.5418,-6.493552 13.039457,13.039457 0 0 0 -1.65785,-6.514494 12.231472,12.231472 0 0 0 -4.60447,-4.624539"
           fill="#ffffff"
           style="fill:#000000;stroke:none;stroke-width:0.872555" />
        <path
           id="Trazado_16008"
           data-name="Trazado 16008"
           d="m 183.31722,83.561302 a 7.106958,7.106958 0 0 1 -6.93419,0 6.3321294,6.3321294 0 0 1 -2.3908,-2.507722 7.7177462,7.7177462 0 0 1 -0.87692,-3.710102 7.8529922,7.8529922 0 0 1 0.87867,-3.73628 6.3871003,6.3871003 0 0 1 2.38992,-2.525173 7.106958,7.106958 0 0 1 6.93419,0 6.142785,6.142785 0 0 1 2.36376,2.51732 7.9864931,7.9864931 0 0 1 0.86295,3.744133 7.8678256,7.8678256 0 0 1 -0.86034,3.7197 6.1864128,6.1864128 0 0 1 -2.36637,2.498997 m 7.59123,-12.83877 a 11.915607,11.915607 0 0 0 -4.54426,-4.568696 13.035095,13.035095 0 0 0 -6.51799,-1.640403 13.227057,13.227057 0 0 0 -6.57644,1.640403 11.705321,11.705321 0 0 0 -4.55212,4.567824 13.44345,13.44345 0 0 0 -1.61597,6.615709 13.357067,13.357067 0 0 0 1.61597,6.572082 11.706194,11.706194 0 0 0 4.55037,4.573932 13.978326,13.978326 0 0 0 13.13719,0 11.746331,11.746331 0 0 0 4.52768,-4.572187 13.376263,13.376263 0 0 0 1.61423,-6.572954 13.318675,13.318675 0 0 0 -1.6404,-6.620945"
           fill="#ffffff"
           style="fill:#000000;stroke:none;stroke-width:0.872555" />
        <path
           id="Trazado_16009"
           data-name="Trazado 16009"
           d="M 102.20541,74.551302 H 90.148449 a 6.2073541,6.2073541 0 0 1 6.408915,-4.504127 5.3888978,5.3888978 0 0 1 3.962266,1.460657 6.2186973,6.2186973 0 0 1 1.68665,3.04347 m 0.52354,-8.407064 a 11.719282,11.719282 0 0 0 -6.174201,-1.590667 12.695671,12.695671 0 0 0 -6.435091,1.644765 11.625046,11.625046 0 0 0 -4.461372,4.599236 13.64152,13.64152 0 0 0 -1.58805,6.587788 12.938241,12.938241 0 0 0 1.687521,6.586915 11.981048,11.981048 0 0 0 4.702197,4.564334 14.006248,14.006248 0 0 0 11.168696,0.858594 12.781181,12.781181 0 0 0 3.88113,-2.022582 2.4431531,2.4431531 0 0 0 1.04706,-2.006876 2.7441845,2.7441845 0 0 0 -1.08458,-2.139504 2.7162627,2.7162627 0 0 0 -1.87687,-0.650053 3.1141477,3.1141477 0 0 0 -1.96237,0.656161 7.1846153,7.1846153 0 0 1 -2.038291,1.022634 7.8276881,7.8276881 0 0 1 -7.334695,-1.216341 6.4900618,6.4900618 0 0 1 -2.171788,-3.251139 h 15.182454 a 2.839293,2.839293 0 0 0 2.0409,-0.785299 2.7092823,2.7092823 0 0 0 0.83417,-1.999895 14.397152,14.397152 0 0 0 -1.38039,-6.405424 10.539588,10.539588 0 0 0 -4.0312,-4.450029"
           fill="#ffffff"
           style="fill:#000000;stroke:none;stroke-width:0.872555" />
        <path
           id="Trazado_16012"
           data-name="Trazado 16012"
           d="m 84.183666,85.076057 v 0 a 2.6019581,2.6019581 0 0 0 -1.980699,-0.901349 h -1.459784 a 1.9850619,1.9850619 0 0 1 -1.618589,-0.826309 3.4998169,3.4998169 0 0 1 -0.739926,-2.30529 V 70.01489 h 2.744184 a 2.9439995,2.9439995 0 0 0 2.071445,-0.755632 2.5818893,2.5818893 0 0 0 0.846378,-1.947542 2.688341,2.688341 0 0 0 -0.848123,-2.036543 2.9535976,2.9535976 0 0 0 -2.070573,-0.753887 H 78.390775 V 58.12546 a 1.2966163,1.2966163 0 0 0 -2.051376,-1.056664 l -0.01832,0.01396 -2.90997,2.168299 a 2.792175,2.792175 0 0 0 -1.125596,2.230249 l -0.0079,3.039108 h -1.059281 a 2.9483623,2.9483623 0 0 0 -2.070572,0.753888 2.6865959,2.6865959 0 0 0 -0.848124,2.036542 2.5801442,2.5801442 0 0 0 0.846378,1.947542 2.9413819,2.9413819 0 0 0 2.071445,0.755633 h 1.07237 v 11.028219 a 9.955849,9.955849 0 0 0 1.088948,4.663804 8.5318398,8.5318398 0 0 0 3.043471,3.326179 7.8477569,7.8477569 0 0 0 4.320018,1.091566 h 0.772211 a 3.5303563,3.5303563 0 0 0 2.406506,-0.674485 2.8349302,2.8349302 0 0 0 1.03136,-2.227632 3.1097849,3.1097849 0 0 0 -0.765231,-2.143867"
           fill="#ffffff"
           style="fill:#000000;stroke:none;stroke-width:0.872555" />
        <path
           id="path1054"
           data-name="Trazado 12456"
           d="m 116.29835,73.149433 13.37992,15.900094 a 2.8087813,2.8020412 0 0 0 1.71365,0.961887 V 80.767465 L 118.01747,65.513912 a 2.8093291,2.8025877 0 0 0 -1.71967,-0.92527 z"
           fill="#6aff99"
           style="stroke:none;stroke-width:0.547183" />
        <path
           id="path1056"
           data-name="Trazado 12457"
           d="M 116.29835,81.15768 V 64.590277 a 2.8109726,2.8042273 0 0 0 -2.09495,0.52084 l -2.94629,2.189385 a 2.8252165,2.818437 0 0 0 -1.13732,2.253875 l -0.0285,11.602757 h -0.0181 v 5.79318 a 3.0065519,2.9993373 0 0 0 0.90393,2.246771 3.1024241,3.0949794 0 0 0 5.32064,-2.246771 z"
           fill="#ffffff"
           style="fill:#000000;stroke:none;stroke-width:0.547183" />
        <path
           id="path1058"
           data-name="Trazado 12458"
           d="m 131.39192,73.443462 v 16.567403 a 2.8104248,2.8036808 0 0 0 2.09494,-0.52084 l 2.94629,-2.189385 a 2.8246687,2.8178905 0 0 0 1.13732,-2.253875 l 0.0285,-11.602757 h 0.0175 v -5.79318 a 3.0065519,2.9993373 0 0 0 -0.90394,-2.246771 3.1024241,3.0949794 0 0 0 -5.32063,2.246771 z"
           fill="#ffffff"
           style="fill:#000000;stroke:none;stroke-width:0.547183" />
        <path
           id="path1060"
           data-name="Trazado 12459"
           d="m 117.9994,75.172127 -1.7016,-2.022148 v -8.559697 z"
           opacity="0.3"
           style="isolation:isolate;mix-blend-mode:multiply;fill:#000000;stroke:none;stroke-width:0.547183" />
        <path
           id="path1062"
           data-name="Trazado 12460"
           d="m 129.69032,78.825112 1.7016,1.943448 v 9.241763 z"
           opacity="0.3"
           style="font-variation-settings:normal;opacity:0.3;isolation:isolate;mix-blend-mode:multiply;vector-effect:none;fill:#000000;fill-opacity:1;stroke:none;stroke-width:0.547183;stroke-linecap:butt;stroke-linejoin:miter;stroke-miterlimit:4;stroke-dasharray:none;stroke-dashoffset:0;stroke-opacity:1;-inkscape-stroke:none;stop-color:#000000" />
      </g>
    </g>
  </g>
</svg>
